<?xml version="1.0" encoding="utf-8"?>
<svg version="1.1" id="Layer_1" xmlns="http://www.w3.org/2000/svg" xmlns:xlink="http://www.w3.org/1999/xlink" x="0px" y="0px"
	 viewBox="0 0 180 37.4" style="enable-background:new 0 0 180 37.4;" xml:space="preserve">
<style type="text/css">
	.st0{fill:#114B9A;}
</style>
<path class="st0" d="M11.3,14.2c-1.2,0-2.4,0.3-3.5,0.9c-1.2,0.7-1.5,1.4-1.5,2.7v10.4c0,3,2.6,3.8,5.1,3.8c1.9,0,3.7-0.7,5-2
	c1.8-1.8,2-4.5,2-6.9C18.4,18.4,16.6,14.2,11.3,14.2 M12.2,36.3c-1.5,0-3-0.2-4.3-0.9c-0.7-0.4-1.4-0.9-2.2-0.8
	c0,0.6,0.1,1.3-0.7,1.3H0.8c-0.4,0-0.7-0.3-0.7-0.7V0.9c0-0.4,0.3-0.7,0.7-0.7h4.8c0.4,0,0.7,0.3,0.7,0.7v10.7c1,0,1.2-0.2,2.1-0.5
	c1.6-0.7,3.2-1.1,4.9-1.1c7.3,0,11.3,6.2,11.3,13C24.5,30.4,20,36.3,12.2,36.3"/>
<path class="st0" d="M41.4,22.6l-3.9,1.3c-2.2,0.7-5.3,1.8-5.3,4.6c0,2.6,2.3,3.6,4.6,3.6c1.2,0,2.5-0.2,3.5-1
	c1-0.8,1.1-1.6,1.1-2.8V22.6z M46.9,35.9h-4.2c-0.8,0-0.7-0.7-0.7-1.3h-0.5c-0.9,0-1.6,0.4-2.4,0.8c-1.7,0.8-2.8,1-4.7,1
	c-4.7,0-8.2-2.5-8.2-7.4c0-5.2,3.7-6.9,8.1-8.3l5.2-1.7c1.1-0.4,2-0.5,2-1.8c0-2.3-2.5-2.8-4.4-2.8c-2.9,0-5.5,0.9-8,2.1
	c-0.3,0.1-0.5,0.3-0.8,0.3c-0.5,0-0.6-0.5-0.6-0.8V13c0-0.8,0.3-1,1-1.3C31.5,10.5,35,10,38,10c4.8,0,9.6,1.4,9.6,7v18.1
	C47.5,35.6,47.2,35.9,46.9,35.9"/>
<path class="st0" d="M62.7,14.2c-1.2,0-2.4,0.3-3.5,0.9c-1.2,0.7-1.5,1.4-1.5,2.7v10.4c0,3,2.6,3.8,5.1,3.8c1.9,0,3.7-0.7,5-2
	c1.8-1.8,2-4.5,2-6.9C69.8,18.4,68,14.2,62.7,14.2 M63.6,36.3c-1.5,0-3-0.2-4.3-0.9c-0.7-0.4-1.4-0.9-2.2-0.8c0,0.6,0.2,1.3-0.7,1.3
	h-4.2c-0.4,0-0.7-0.3-0.7-0.7V0.9c0-0.4,0.3-0.7,0.7-0.7H57c0.4,0,0.7,0.3,0.7,0.7v10.7c1,0,1.2-0.2,2.1-0.5
	c1.6-0.7,3.2-1.1,4.9-1.1c7.3,0,11.3,6.2,11.3,13C75.9,30.4,71.4,36.3,63.6,36.3"/>
<path class="st0" d="M97.7,34.8c-2,0.9-5.2,1.4-7.4,1.4c-8.1,0-12.6-5-12.6-12.9c0-7.7,4.8-13.4,12.8-13.4c1.9,0,3.8,0.3,5.6,0.8
	c1,0.3,2.5,0.5,2.5,1.8v2.7c0,0.3-0.2,0.6-0.5,0.6c-0.3,0-0.7-0.2-1-0.3c-1.7-0.9-3.7-1.4-5.6-1.4c-5.6,0-7.7,3.7-7.7,8.9
	c0,5,1.8,8.8,7.4,8.8c2.1,0,4.2-0.6,6-1.5c0.3-0.2,0.6-0.3,0.9-0.3c0.7,0,0.5,2.8,0.5,3.4C98.6,34.4,98.5,34.5,97.7,34.8"/>
<path class="st0" d="M112.2,14.1c-5,0-6.4,4.9-6.4,9c0,4.1,1.4,9.2,6.4,9.2c4.9,0,6.3-4.9,6.3-9C118.5,19.3,117.1,14.1,112.2,14.1
	 M120.6,33.9c-2.5,2.2-5.3,2.7-8.5,2.7c-3.2,0-5.9-0.5-8.4-2.7c-3-2.7-4-6.7-4-10.6c0-4,0.9-7.9,4-10.6c2.6-2.3,5.3-2.7,8.7-2.7
	c8.4,0,12.2,5.5,12.2,13.4C124.6,27.3,123.7,31.1,120.6,33.9"/>
<path class="st0" d="M146.7,34.8c-2,0.9-5.2,1.4-7.4,1.4c-8.1,0-12.6-5-12.6-12.9c0-7.7,4.8-13.4,12.8-13.4c1.9,0,3.8,0.3,5.6,0.8
	c1,0.3,2.5,0.5,2.5,1.8v2.7c0,0.3-0.2,0.6-0.5,0.6c-0.3,0-0.7-0.2-1-0.3c-1.7-0.9-3.7-1.4-5.6-1.4c-5.7,0-7.7,3.7-7.7,8.9
	c0,5,1.8,8.8,7.4,8.8c2.1,0,4.2-0.6,6.1-1.5c0.3-0.2,0.6-0.3,0.9-0.3c0.7,0,0.5,2.8,0.5,3.4C147.5,34.4,147.4,34.5,146.7,34.8"/>
<path class="st0" d="M171.6,35.9h-5.4c-0.9,0-1-0.2-1.4-0.9l-7.4-10.7c-0.3-0.5-0.8-0.4-1.3-0.4v11.3c0,0.4-0.3,0.7-0.7,0.7h-4.8
	c-0.4,0-0.7-0.3-0.7-0.7V0.9c0-0.4,0.3-0.7,0.7-0.7h4.8c0.4,0,0.7,0.3,0.7,0.7v19.3h0.6c0.4,0,0.5-0.1,0.8-0.4l7.7-8.6
	c0.4-0.5,0.6-0.8,1.2-0.8h4.7c0.3,0,0.7,0.2,0.7,0.6c0,0.4-0.4,0.7-0.6,1l-8.8,9.5l9.6,12.9c0.3,0.3,0.5,0.7,0.5,1.1
	C172.4,35.8,171.9,35.9,171.6,35.9"/>
<g>
	<path class="st0" d="M174.5,0.3V1h-1.4v3.6h-0.8V1H171V0.3H174.5z M179.2,4.5L179,2c0-0.3,0-0.7,0-1.2h0c-0.1,0.4-0.2,0.9-0.4,1.3
		l-0.8,2.4h-0.9L176.1,2c-0.1-0.3-0.2-0.8-0.3-1.2h0c0,0.4,0,0.8,0,1.2l-0.2,2.5h-0.8l0.3-4.3h1.3l0.7,2.1c0.1,0.3,0.2,0.6,0.3,1.1
		h0c0.1-0.4,0.2-0.8,0.3-1.1l0.7-2.1h1.2l0.3,4.3H179.2z"/>
</g>
</svg>
